<?xml version="1.0" encoding="UTF-8"?>
<svg width="783px" height="722px" viewBox="0 0 783 722" version="1.1" xmlns="http://www.w3.org/2000/svg" xmlns:xlink="http://www.w3.org/1999/xlink">
    <!-- Generator: Sketch 62 (91390) - https://sketch.com -->
    <title>Group 3</title>
    <desc>Created with Sketch.</desc>
    <g id="Page-1" stroke="none" stroke-width="1" fill="none" fill-rule="evenodd">
        <g id="t-copy" transform="translate(-321.000000, -213.000000)" fill="#FFFFFF">
            <g id="Group-3" transform="translate(321.000000, 213.000000)">
                <path d="M237,206.105163 C245.734762,206.105163 252.829286,213.202631 252.996965,222.030095 L253,222.349904 L253,265.296941 C253,333.128891 301.71,393.823308 368.21,400.412581 C443.747,407.890848 507.709019,348.240211 508.980706,273.3579 L509,271.08413 L509,222.349904 C509,213.481532 515.990539,206.278488 524.685009,206.108244 L525,206.105163 L541,206.105163 C549.734762,206.105163 556.829286,213.202631 556.996965,222.030095 L557,222.349904 L557,271.08413 C557,360.441379 492.029171,434.543867 407.565427,447.60224 L405,447.979216 L405,482.265774 L501,482.265774 C509.734762,482.265774 516.829286,489.363243 516.996965,498.190707 L517,498.510516 L517,514.755258 C517,523.62363 510.009461,530.826674 501.314991,530.996919 L501,531 L261,531 C252.265238,531 245.170714,523.902532 245.003035,515.075067 L245,514.755258 L245,498.510516 C245,489.642144 251.990539,482.4391 260.685009,482.268856 L261,482.265774 L357,482.265774 L357,447.593403 C269.8503,435.390963 206.281806,355.751139 205.019151,265.851519 L205,263.124207 L205,222.349904 C205,213.481532 211.990539,206.278488 220.685009,206.108244 L221,206.105163 L237,206.105163 Z M381,0 C431.665711,0 473.163255,39.8481428 476.748653,90.3607729 L439.75239,90.3613767 C430.500301,90.3613767 423,97.8616772 423,107.113767 C423,116.258274 430.326889,123.691494 439.430362,123.863124 L439.75239,123.866157 L477,123.866 L477,161.432 L439.75239,161.432122 C430.607883,161.432122 423.174662,168.759011 423.003033,177.862485 L423,178.184512 C423,187.32902 430.326889,194.76224 439.430362,194.933869 L439.75239,194.936902 L477,194.936 L477,232.502 L439.75239,232.502868 C430.607883,232.502868 423.174662,239.829757 423.003033,248.93323 L423,249.255258 C423,258.399765 430.326889,265.832986 439.430362,266.004615 L439.75239,266.007648 L476.815533,266.00801 C473.71826,317.001055 432.004774,357.384321 381,357.384321 C329.995226,357.384321 288.28174,317.001055 285.184467,266.00801 L325.24761,266.007648 C334.499699,266.007648 342,258.507348 342,249.255258 C342,240.110751 334.673111,232.677531 325.569638,232.505901 L325.24761,232.502868 L285,232.502 L285,194.936 L325.24761,194.936902 C334.392117,194.936902 341.825338,187.610013 341.996967,178.50654 L342,178.184512 C342,169.040005 334.673111,161.606785 325.569638,161.435156 L325.24761,161.432122 L285,161.432 L285,123.866 L325.24761,123.866157 C334.392117,123.866157 341.825338,116.539268 341.996967,107.435794 L342,107.113767 C342,97.9692596 334.673111,90.5360391 325.569638,90.3644099 L325.24761,90.3613767 L285.251347,90.3607729 C288.836745,39.8481428 330.334289,0 381,0 Z M151.296798,16.8987407 C158.122885,11.5590075 167.026478,20.1025807 162.277895,27.4256434 C154.561448,39.4781842 144.117205,73.7433643 144.117205,88.4361527 C144.117205,122.597162 252.341611,82.9865364 252.341611,117.520884 C253.822986,138.239275 252.341611,122.376117 252.341611,152.310908 C252.341611,172.267434 219.698759,178.544049 154.413055,171.14075 C154.413055,171.14075 74.5775093,163.817687 106.630442,73.9576047 C106.630442,73.9576047 115.237248,44.9704813 151.296798,16.8987407 Z M608.703202,16.8987407 C644.762752,44.9704813 653.369558,73.9576047 653.369558,73.9576047 C685.422491,163.817687 605.586945,171.14075 605.586945,171.14075 C540.301241,178.544049 507.658389,172.267434 507.658389,152.310908 C507.658389,122.376117 506.177014,138.239275 507.658389,117.520884 C507.658389,82.9865364 615.882795,122.597162 615.882795,88.4361527 C615.882795,73.7433643 605.438552,39.4781842 597.722105,27.4256434 C592.973522,20.1025807 601.877115,11.5590075 608.703202,16.8987407 Z" id="Combined-Shape" fill-rule="nonzero"></path>
                <g id="Group" transform="translate(0.000000, 603.000000)">
                    <path d="M74.7067358,115.79883 L50.5450777,115.79883 C49.8507772,110.927485 48.3233161,105.777778 44.5740933,95.2 L31.7989637,58.1777778 C31.6601036,57.4818713 27.4943005,44.5380117 27.0777202,43.4245614 C25.5502591,38.4140351 25.5502591,38.4140351 24.8559585,36.4654971 C25.6891192,45.2339181 26.2445596,56.6467836 26.2445596,64.0233918 L26.2445596,94.225731 C26.2445596,103.82924 26.5222798,109.953216 27.3554404,115.79883 L0,115.79883 C0.833160622,109.535673 1.11088083,103.690058 1.11088083,94.225731 L1.11088083,21.7122807 C1.11088083,13.3614035 0.694300518,5.98479532 0,0 L36.6590674,0 C37.6310881,5.98479532 38.7419689,10.4385965 41.9357513,19.6245614 L62.7647668,79.6116959 L83.4549223,19.6245614 C86.6487047,10.2994152 87.7595855,5.84561404 88.5927461,0 L125.390674,0 C124.557513,6.68070175 124.279793,12.3871345 124.279793,21.7122807 L124.279793,94.225731 C124.279793,104.803509 124.557513,110.231579 125.390674,115.79883 L98.0352332,115.79883 C98.8683938,109.396491 99.146114,104.107602 99.146114,94.225731 L99.146114,63.8842105 C99.146114,60.5438596 99.5626943,50.1052632 99.8404145,45.7906433 C100.256995,38.4140351 100.256995,38.4140351 100.395855,36.3263158 C97.3409326,47.1824561 95.9523316,52.1929825 94.1471503,57.2035088 L80.6777202,95.3391813 C77.2062176,105.221053 75.4010363,111.345029 74.7067358,115.79883 Z M141.915026,0 L170.103627,0 L170.103627,20.877193 L141.915026,20.877193 L141.915026,0 Z M141.498446,30.8982456 L170.520207,30.8982456 C169.687047,36.6046784 169.409326,42.1719298 169.409326,51.9146199 L169.409326,94.7824561 C169.409326,102.298246 169.825907,109.814035 170.520207,115.79883 L141.498446,115.79883 C142.331606,108.978947 142.609326,103.690058 142.609326,94.7824561 L142.609326,51.9146199 C142.609326,42.8678363 142.331606,37.1614035 141.498446,30.8982456 Z M267.027979,56.6467836 L242.033161,61.7964912 C240.78342,57.6210526 239.950259,55.6725146 238.145078,53.5847953 C235.367876,50.3836257 231.479793,48.7134503 226.480829,48.7134503 C215.233161,48.7134503 208.567876,57.6210526 208.567876,72.9309942 C208.567876,87.9625731 215.649741,97.7052632 226.758549,97.7052632 C232.174093,97.7052632 237.173057,95.4783626 239.950259,91.5812865 C241.2,89.7719298 241.894301,88.380117 242.449741,85.1789474 L268,89.2152047 C266.472539,95.2 264.806218,98.9578947 262.167876,102.994152 C255.22487,113.293567 242.588601,119 226.480829,119 C213.150259,119 201.763731,114.824561 194.126425,107.030409 C186.072539,99.097076 181.629016,86.8491228 181.629016,73.2093567 C181.629016,45.3730994 199.125389,27.5578947 226.203109,27.5578947 C247.587565,27.5578947 262.445596,38.1356725 267.027979,56.6467836 Z" id="Mic" fill-rule="nonzero"></path>
                    <path d="M414.604925,113.352078 L391.655723,113.352078 C391.377551,110.007335 389.013088,102.899756 384.423248,91.0537897 C376.9126,71.8215159 372.044587,66.6650367 361.33496,66.6650367 L340.611136,66.6650367 L340.611136,95.0953545 C340.611136,103.457213 340.889308,107.91687 341.723824,113.352078 L321,113.352078 C321.834516,107.498778 322.112689,103.735941 322.112689,95.2347188 L322.112689,20.1173594 C322.112689,12.7310513 321.834516,8.55012225 321,2 C326.841615,2.27872861 331.153283,2.41809291 338.803017,2.41809291 L372.183673,2.41809291 C393.324756,2.41809291 405.425244,13.00978 405.425244,31.405868 C405.425244,40.3251834 403.060781,47.2933985 398.331854,52.1711491 C394.437445,56.2127139 390.821207,58.0244499 382.893301,60.2542787 C391.655723,63.0415648 394.298358,66.9437653 408.067879,99.5550122 C409.180568,102.06357 412.65772,109.589242 414.604925,113.352078 Z M340.611136,50.7775061 L368.567436,50.7775061 C373.71362,50.7775061 378.581633,48.9657702 381.780612,45.7603912 C384.70142,42.8337408 386.231366,38.792176 386.231366,33.4963325 C386.231366,23.4621027 380.528838,18.3056235 369.12378,18.3056235 L340.611136,18.3056235 L340.611136,50.7775061 Z M461.850266,116 C436.397516,116 420.263531,99.5550122 420.263531,73.4938875 C420.263531,47.5721271 436.397516,30.9877751 461.71118,30.9877751 C486.885759,30.9877751 502.880657,47.4327628 502.880657,73.2151589 C502.880657,98.997555 486.607587,116 461.850266,116 Z M461.71118,45.4816626 C447.107143,45.4816626 438.205634,56.0733496 438.205634,73.4938875 C438.205634,90.6356968 447.107143,101.227384 461.572094,101.227384 C476.037045,101.227384 484.938554,90.7750611 484.938554,73.7726161 C484.938554,55.794621 476.454303,45.4816626 461.71118,45.4816626 Z M579.238909,113.352078 L579.238909,106.523227 C579.238909,104.850856 579.238909,103.317848 579.377995,101.506112 C572.145519,111.679707 564.773957,115.303178 551.282609,115.303178 C541.546584,115.303178 534.175022,113.07335 528.055235,108.195599 C518.736469,100.948655 513.590284,88.2665037 513.590284,73.2151589 C513.590284,47.7114914 528.194321,31.5452323 551.143523,31.5452323 C559.766859,31.5452323 566.860248,33.6356968 572.284605,37.9559902 C574.788154,39.9070905 576.318101,41.5794621 579.377995,45.6210269 C579.377995,43.9486553 579.377995,43.9486553 579.238909,41.1613692 C579.099823,40.1858191 579.099823,37.5378973 579.099823,35.1687042 L579.099823,21.2322738 C579.099823,12.8704156 578.82165,8.27139364 578.12622,2.41809291 L597.737356,2.41809291 C597.041925,9.10757946 596.763753,13.9853301 596.763753,21.0929095 L596.763753,94.5378973 C596.763753,102.760391 597.041925,107.220049 597.737356,113.352078 L579.238909,113.352078 Z M531.671473,73.3545232 C531.671473,89.9388753 540.572981,100.391198 554.481588,100.391198 C561.85315,100.391198 568.946539,96.9070905 573.119122,91.193154 C576.596273,86.594132 578.543478,79.7652812 578.543478,72.5183374 C578.543478,65.6894866 575.900843,58.4425428 571.867347,53.9828851 C567.555679,49.2444988 560.462289,46.1784841 553.786158,46.1784841 C540.294809,46.1784841 531.671473,56.7701711 531.671473,73.3545232 Z M689.219388,77.9535452 L628.716948,77.9535452 C629.412378,85.6185819 630.664153,89.5207824 633.863132,93.5623472 C637.896628,98.5794621 644.155501,101.366748 651.248891,101.366748 C658.064108,101.366748 663.905723,98.8581907 667.939219,94.398533 C669.608252,92.4474328 670.581854,90.9144254 671.972715,87.1515892 L688.384871,92.4474328 C685.185892,99.1369193 683.377773,101.784841 679.900621,105.268949 C672.668146,112.376528 662.932121,116 651.248891,116 C626.630657,116 611.053017,99.5550122 611.053017,73.4938875 C611.053017,47.7114914 626.491571,30.8484108 650.275288,30.8484108 C666.548358,30.8484108 679.344277,38.9315403 684.90772,52.8679707 C687.550355,59.5574572 688.523957,64.5745721 688.941216,74.0513447 C688.941216,74.3300733 688.941216,74.7481663 689.219388,77.9535452 Z M629.134206,64.1564792 L671.138199,64.1564792 C670.164596,58.0244499 668.495563,54.2616137 665.018412,50.7775061 C661.263088,47.0146699 656.534161,45.202934 649.997116,45.202934 C639.148403,45.202934 631.220497,52.4498778 629.134206,64.1564792 Z M741.96961,116 C716.516859,116 700.382875,99.5550122 700.382875,73.4938875 C700.382875,47.5721271 716.516859,30.9877751 741.830524,30.9877751 C767.005102,30.9877751 783,47.4327628 783,73.2151589 C783,98.997555 766.72693,116 741.96961,116 Z M741.830524,45.4816626 C727.226486,45.4816626 718.324978,56.0733496 718.324978,73.4938875 C718.324978,90.6356968 727.226486,101.227384 741.691437,101.227384 C756.156389,101.227384 765.057897,90.7750611 765.057897,73.7726161 C765.057897,55.794621 756.573647,45.4816626 741.830524,45.4816626 Z" id="Rodeo" fill-rule="nonzero"></path>
                    <circle id="Oval" cx="294.5" cy="100.5" r="11.5"></circle>
                </g>
            </g>
        </g>
    </g>
</svg>